<svg width="153" height="72" viewBox="0 0 153 72" fill="none" xmlns="http://www.w3.org/2000/svg">
<path fill-rule="evenodd" clip-rule="evenodd" d="M10.7925 32.1294C10.8709 28.9426 10.9486 25.7552 11.0269 22.5677C11.9342 14.7976 17.09 11.3707 24.3503 10.8951C30.7544 10.7517 37.0216 10.7691 43.4262 10.8363H46.8302C44.6656 22.2676 39.9499 22.4377 29.6917 22.5677C20.9391 22.5677 13.6855 22.6055 10.7925 32.1294Z" fill="#FCEE21"/>
<path d="M21.1521 28.0171C14.4849 28.454 10.7919 32.0368 10.8459 38.7287C10.8622 40.7285 10.9568 42.8356 10.9095 44.7482C13.1457 37.3888 18.5158 37.0371 25.28 37.0371C33.2073 36.9365 36.8515 36.8058 38.5243 27.9714H35.894C33.6657 27.948 31.4596 27.9324 29.2554 27.9324C26.5628 27.9324 23.8733 27.9558 21.1521 28.0171Z" fill="url(#paint0_linear_30_2337)"/>
<path d="M10.9368 44.6628V57.6764C21.7371 55.8843 21.357 48.7881 21.3282 37.1379C16.4794 37.4721 12.7272 38.8776 10.9368 44.6628Z" fill="url(#paint1_linear_30_2337)"/>
<path fill-rule="evenodd" clip-rule="evenodd" d="M53.7209 21.8523V31.1643H55.3982H57.0756L57.0859 27.4173L57.0962 23.6704L60.1785 23.66L63.2608 23.6497V22.1958V20.742L60.1785 20.7316L57.0962 20.7213V18.0954V15.4695L60.7652 15.4592L64.434 15.4489L64.4235 14.0049L64.4128 12.5608L59.0668 12.5506L53.7209 12.5403V21.8523ZM72.9624 17.4949C71.0859 17.6262 69.4148 18.3368 68.1773 19.5295C66.8084 20.8489 66.0936 22.5468 66.0911 24.4855C66.0897 25.636 66.3284 26.6746 66.8192 27.6519C67.005 28.022 67.3516 28.568 67.5743 28.8414C67.797 29.1147 68.3948 29.6937 68.6977 29.9292C71.1876 31.8655 74.9226 32.0344 77.6338 30.3333C79.9029 28.9096 81.066 26.4128 80.7618 23.6183C80.4213 20.4909 77.9431 18.0525 74.6197 17.5751C74.1661 17.5099 73.3274 17.4693 72.9624 17.4949ZM99.2375 17.4967C98.0532 17.5835 97.0583 17.875 96.1249 18.4086C94.1006 19.5658 92.891 21.8365 92.891 24.4797C92.891 27.2003 94.2743 29.5432 96.5626 30.6983C98.4548 31.6535 100.8 31.7646 102.977 31.0021C103.721 30.7412 104.841 30.1243 105.337 29.7013L105.465 29.5916L104.833 28.4186C104.485 27.7735 104.185 27.2456 104.167 27.2456C104.149 27.2456 103.983 27.3545 103.798 27.4876C103.111 27.9823 101.984 28.4611 101.188 28.5961C100.753 28.6699 99.896 28.6795 99.5431 28.6144C98.2471 28.3754 97.3013 27.7175 96.7332 26.6598C96.5442 26.3081 96.3648 25.7346 96.3383 25.3974L96.3153 25.1045H100.927H105.538L105.57 24.8722C105.632 24.4199 105.608 23.0564 105.529 22.5796C105.283 21.0852 104.767 20.005 103.868 19.1012C102.924 18.1524 101.77 17.6433 100.268 17.5123C99.7982 17.4714 99.6196 17.4687 99.2375 17.4967ZM90.1422 17.71C88.8308 17.9902 87.7438 18.8796 87.0487 20.2409C86.9516 20.4311 86.8417 20.6806 86.8045 20.7954C86.7672 20.9102 86.7253 21.0168 86.7114 21.0324C86.6975 21.0479 86.6861 20.3299 86.6861 19.4367V17.8126L85.0994 17.802L83.5128 17.7915V24.4778V31.1643H85.1702H86.8275V28.3058C86.8275 25.2537 86.8488 24.8176 87.0349 24.0624C87.2596 23.15 87.5903 22.5517 88.2004 21.9534C88.6038 21.5579 89.0292 21.2909 89.5359 21.1153C90.033 20.9429 90.4126 20.8906 91.0269 20.9097L91.5571 20.9263V19.3034V17.6806L91.4661 17.6563C91.276 17.6054 90.4807 17.6376 90.1422 17.71ZM107.16 17.8331C107.16 17.8816 107.782 18.8458 110.504 23.0167C110.98 23.7459 111.377 24.364 111.387 24.3902C111.397 24.4165 111.257 24.6652 111.075 24.9429C110.173 26.3234 107.621 30.2406 107.206 30.8815L107.036 31.1441L108.865 31.1546C109.87 31.1603 110.706 31.1512 110.723 31.1344C110.75 31.1076 111.659 29.6161 111.85 29.2857C111.888 29.2191 112.205 28.6919 112.552 28.1142C112.9 27.5365 113.233 26.9593 113.292 26.8315C113.351 26.7038 113.415 26.5992 113.433 26.5992C113.451 26.5992 113.522 26.7129 113.591 26.8517C113.66 26.9906 114.265 28.0176 114.936 29.134L116.155 31.1636L118.003 31.164L119.851 31.1643L119.571 30.73C119.417 30.4911 118.967 29.8007 118.571 29.1958C118.176 28.5908 117.731 27.9091 117.583 27.6808C117.434 27.4526 116.894 26.6232 116.382 25.8379L115.451 24.4099L115.646 24.1209C115.753 23.962 116.195 23.2866 116.628 22.62C117.061 21.9534 117.929 20.6186 118.557 19.6538C119.186 18.689 119.709 17.8755 119.72 17.846C119.737 17.8019 119.407 17.7924 117.865 17.7924H115.99L115.365 18.8891C115.021 19.4924 114.688 20.0787 114.625 20.192C114.562 20.3053 114.314 20.7435 114.075 21.1657C113.835 21.5878 113.6 22.0105 113.552 22.1049C113.504 22.1993 113.452 22.2766 113.435 22.2765C113.419 22.2765 113.352 22.172 113.286 22.0443C113.17 21.8183 112.867 21.2813 111.534 18.9438L110.89 17.8126L109.025 17.8021C107.769 17.795 107.16 17.8051 107.16 17.8331ZM100.383 20.1526C101.072 20.3409 101.672 20.8467 101.972 21.4925C102.092 21.7507 102.21 22.2145 102.247 22.5695L102.276 22.8422H99.3373H96.3988L96.4249 22.7034C96.4393 22.627 96.4887 22.4498 96.5347 22.3095C96.9368 21.0848 97.7397 20.3502 98.9343 20.1142C99.2898 20.0439 100.059 20.0644 100.383 20.1526ZM74.258 20.4C75.7451 20.7042 76.9363 21.8654 77.3021 23.3674C77.4617 24.0227 77.4617 24.9744 77.3021 25.6297C76.9798 26.953 76.0118 28.0269 74.7495 28.4617C73.9135 28.7497 72.7921 28.725 71.9943 28.401C70.7803 27.908 69.986 26.9933 69.5998 25.6436C69.5191 25.3616 69.5092 25.2355 69.5092 24.4985C69.5092 23.7591 69.519 23.6357 69.601 23.3472C69.8265 22.5537 70.2035 21.9205 70.7694 21.3852C71.7032 20.5018 72.9855 20.1397 74.258 20.4ZM60.8758 36.8259C59.7824 36.9264 58.4993 37.3107 57.4526 37.8511C55.0654 39.0837 53.3467 41.279 52.7108 43.9078C52.5123 44.7285 52.454 45.2724 52.453 46.3136C52.4516 47.6862 52.5696 48.4648 52.9588 49.6513C53.7161 51.96 55.2812 53.8175 57.4171 54.942C58.045 55.2726 59.1381 55.6687 59.7439 55.7851C61.29 56.0821 62.4129 56.1103 63.8104 55.8871C65.7564 55.5763 67.7312 54.6209 69.0459 53.3542L69.403 53.0103L69.2273 52.7827C69.1306 52.6576 68.7294 52.1138 68.3357 51.5743L67.6199 50.5934L67.3503 50.8302C66.3718 51.6899 65.2849 52.3068 64.1306 52.6577C62.9918 53.0039 61.5403 53.0208 60.4104 52.701C58.495 52.1589 56.9759 50.6629 56.3052 48.6583C55.7057 46.8661 55.8049 44.8707 56.5746 43.2451C56.8686 42.624 57.2389 42.1055 57.7604 41.5844C58.6471 40.6987 59.6503 40.191 60.9971 39.9466C61.5988 39.8374 62.7813 39.8464 63.3765 39.9647C64.6441 40.2168 65.8411 40.7439 66.8441 41.4917C67.0409 41.6385 67.2218 41.7663 67.2461 41.7756C67.2703 41.785 67.4815 41.4964 67.7154 41.1344C67.9493 40.7723 68.3096 40.2165 68.5161 39.8993L68.8916 39.3225L68.7946 39.218C68.4792 38.8781 67.6132 38.2731 66.9393 37.922C65.8033 37.3301 64.4191 36.9313 63.1193 36.8214C62.5507 36.7734 61.4226 36.7756 60.8758 36.8259ZM121.187 40.617V42.5566H120.278H119.368V43.8695V45.1825H120.235H121.101L121.118 48.4446C121.134 51.5751 121.138 51.722 121.219 52.0833C121.517 53.4086 122.051 54.2382 123.03 54.8985C124.009 55.5591 125.427 55.8989 126.937 55.8352C127.254 55.8218 127.555 55.7988 127.605 55.7841L127.695 55.7574L127.696 54.3179L127.696 52.8784L127.221 52.8927C125.99 52.9297 125.13 52.5097 124.71 51.6667C124.462 51.1678 124.463 51.1821 124.462 48.0407L124.462 45.1825H125.977H127.493V43.8695V42.5566H125.978H124.462L124.452 40.6276L124.441 38.6985L122.814 38.688L121.187 38.6774V40.617ZM77.8007 42.0337C75.5761 42.1947 73.6215 43.2099 72.3815 44.8483C71.4634 46.0614 71.0218 47.4233 71.0222 49.0405C71.0225 50.1958 71.2075 51.0517 71.6704 52.0386C72.6169 54.0566 74.5333 55.4665 76.9238 55.9034C78.4402 56.1806 80.0519 56.0116 81.4512 55.4287C83.5445 54.5567 85.0383 52.8391 85.5303 50.7387C85.6914 50.0505 85.7159 49.8156 85.7131 48.9799C85.7106 48.2401 85.6986 48.0962 85.6004 47.6303C85.4147 46.7489 85.1787 46.1348 84.755 45.4302C83.3919 43.1631 80.6562 41.827 77.8007 42.0337ZM111.876 42.0345C110.557 42.1452 109.414 42.6728 108.515 43.5865C108.295 43.8097 108.047 44.118 107.888 44.3655C107.744 44.5908 107.616 44.7759 107.605 44.7768C107.594 44.7778 107.591 44.2332 107.599 43.5665L107.612 42.3546H106.012H104.412V49.041V55.7273L106.079 55.7168L107.747 55.7062L107.769 52.131C107.794 48.2298 107.784 48.3946 108.035 47.6468C108.558 46.0944 109.959 45.0655 111.555 45.0622C112.76 45.0596 113.357 45.5208 113.638 46.6724C113.669 46.8018 113.69 48.214 113.706 51.2826L113.729 55.7062L115.378 55.7168L117.027 55.7274L117.014 50.8892C116.999 45.7118 117.006 45.894 116.803 45.1221C116.579 44.2701 116.138 43.4916 115.627 43.0447C114.771 42.2952 113.345 41.9111 111.876 42.0345ZM88.2424 47.0136C88.2424 52.0019 88.2443 52.0563 88.4488 52.8865C88.859 54.552 89.8959 55.565 91.539 55.9053C93.6136 56.335 95.699 55.6645 96.9286 54.1724C97.1497 53.9041 97.4993 53.3666 97.4993 53.295C97.4993 53.2769 97.5129 53.2621 97.5296 53.2621C97.5463 53.2621 97.5534 53.8166 97.5455 54.4943L97.5311 55.7264H99.1321H100.733V49.0405V42.3546H99.0787H97.4241L97.4081 45.7379C97.3906 49.4213 97.3928 49.384 97.1495 50.1919C96.8489 51.1899 96.2247 52.0405 95.4527 52.5043C94.9005 52.8361 94.3548 52.9793 93.6438 52.9793C92.5312 52.9793 91.9758 52.5529 91.6704 51.4644L91.5797 51.1412L91.5665 46.7479L91.5534 42.3546H89.8979H88.2424V47.0136ZM128.489 42.5869C128.547 42.7147 128.691 43.0464 128.808 43.3242C129.321 44.5374 129.406 44.7344 129.533 45.0209C129.685 45.3608 131.614 49.8619 131.884 50.5054C131.98 50.7334 132.085 50.9788 132.118 51.0508C132.411 51.6895 134.014 55.4777 134.01 55.5244C134.004 55.6088 133.453 56.8783 133.326 57.1C133.064 57.56 132.643 57.9786 132.237 58.1841C131.985 58.312 131.505 58.4332 131.254 58.4325C130.85 58.4315 130.404 58.2912 129.948 58.0224C129.837 57.9569 129.731 57.918 129.713 57.9359C129.685 57.9648 128.75 60.0498 128.663 60.2791C128.621 60.3883 128.697 60.4488 129.171 60.6847C129.875 61.0351 130.444 61.1794 131.238 61.2086C131.937 61.2343 132.43 61.1713 133.025 60.9803C134.2 60.6028 135.204 59.7448 135.845 58.5692C136.049 58.1952 136.38 57.3831 137.235 55.1609C137.393 54.7498 137.583 54.259 137.657 54.0701C137.731 53.8812 137.905 53.4358 138.043 53.0803C138.402 52.156 138.573 51.7156 138.868 50.9594C139.011 50.5928 139.24 50.002 139.378 49.6465C139.516 49.291 139.728 48.7456 139.849 48.4345C139.97 48.1235 140.158 47.6417 140.266 47.364C140.373 47.0862 140.653 46.3682 140.886 45.7682C141.119 45.1683 141.415 44.4048 141.543 44.0715C141.672 43.7382 141.873 43.2232 141.992 42.9271C142.11 42.631 142.207 42.3808 142.207 42.3712C142.207 42.3616 141.385 42.3585 140.38 42.3643L138.553 42.3748L138.442 42.7182C138.381 42.907 138.177 43.516 137.988 44.0715C136.399 48.759 135.813 50.5317 135.701 50.9998C135.628 51.2998 135.552 51.6157 135.53 51.7018C135.509 51.788 135.477 51.8425 135.46 51.823C135.443 51.8036 135.36 51.5149 135.276 51.1816C135.116 50.5475 134.989 50.155 134.628 49.1819C134.508 48.8597 134.262 48.1871 134.08 47.6872C133.899 47.1872 133.641 46.4782 133.508 46.1116C133.375 45.745 133.23 45.3451 133.187 45.2229C133.143 45.1007 133.011 44.7371 132.892 44.4149C132.681 43.8402 132.196 42.5045 132.162 42.4051C132.148 42.3657 131.732 42.3546 130.264 42.3546H128.384L128.489 42.5869ZM79.4087 44.9786C80.9123 45.3913 81.9857 46.6007 82.2829 48.2169C82.3833 48.7629 82.3471 49.67 82.2032 50.2121C81.8024 51.7217 80.7284 52.7593 79.1875 53.1253C78.7724 53.2239 77.9213 53.2109 77.4695 53.099C76.0231 52.7409 74.9786 51.7358 74.5628 50.3019C74.41 49.7747 74.3511 49.1095 74.4102 48.5782C74.6228 46.6672 75.826 45.2907 77.6084 44.9193C78.0181 44.8339 78.9992 44.8663 79.4087 44.9786Z" fill="#2D2D2D"/>
<defs>
<linearGradient id="paint0_linear_30_2337" x1="10.8453" y1="36.3403" x2="38.5243" y2="36.3403" gradientUnits="userSpaceOnUse">
<stop stop-color="#396AFC"/>
<stop offset="0.321114" stop-color="#396AFC"/>
<stop offset="0.693548" stop-color="#2948FF"/>
<stop offset="1" stop-color="#2948FF"/>
</linearGradient>
<linearGradient id="paint1_linear_30_2337" x1="16.0071" y1="63.756" x2="16.1329" y2="43.2807" gradientUnits="userSpaceOnUse">
<stop stop-color="#396AFC"/>
<stop offset="0.319646" stop-color="#396AFC"/>
<stop offset="0.69599" stop-color="#2948FF"/>
<stop offset="1" stop-color="#2948FF"/>
</linearGradient>
</defs>
</svg>
