<svg width="18" height="11" viewBox="0 0 18 11" fill="none" xmlns="http://www.w3.org/2000/svg">
<path d="M8.29764 0.71228L0.287559 8.72251C0.102146 8.90777 0 9.15509 0 9.41879C0 9.6825 0.102146 9.92981 0.287559 10.1151L0.87731 10.705C1.2616 11.0888 1.88618 11.0888 2.26988 10.705L8.99627 3.97859L15.7301 10.7124C15.9155 10.8977 16.1627 11 16.4263 11C16.6901 11 16.9373 10.8977 17.1228 10.7124L17.7124 10.1225C17.8979 9.93713 18 9.68996 18 9.42626C18 9.16255 17.8979 8.91524 17.7124 8.72997L9.69504 0.71228C9.50904 0.526574 9.26071 0.424575 8.99671 0.42516C8.73169 0.424575 8.48349 0.526574 8.29764 0.71228Z" fill="#A8A8A8"/>
</svg>
