<svg width="9" height="17" viewBox="0 0 9 17" fill="none" xmlns="http://www.w3.org/2000/svg">
<path d="M0.837924 8.50003C0.837093 8.03462 0.928 7.57361 1.10545 7.14336C1.2829 6.7131 1.54341 6.32204 1.87209 5.99253L7.65917 0.205446C7.79255 0.0720645 7.97346 -0.00286861 8.16209 -0.00286862C8.35072 -0.00286863 8.53162 0.0720645 8.66501 0.205446C8.79839 0.338828 8.87332 0.519733 8.87332 0.708363C8.87332 0.896993 8.79839 1.0779 8.66501 1.21128L2.87792 6.99836C2.47998 7.3968 2.25646 7.9369 2.25646 8.50003C2.25646 9.06316 2.47998 9.60326 2.87792 10.0017L8.66501 15.7888C8.79839 15.9222 8.87332 16.1031 8.87332 16.2917C8.87332 16.4803 8.79839 16.6612 8.66501 16.7946C8.53163 16.928 8.35072 17.0029 8.16209 17.0029C7.97346 17.0029 7.79256 16.928 7.65917 16.7946L1.87209 11.0075C1.54341 10.678 1.2829 10.287 1.10545 9.85671C0.928 9.42645 0.837093 8.96544 0.837924 8.50003Z" fill="#A8A8A8"/>
</svg>
