<svg width="9" height="17" viewBox="0 0 9 17" fill="none" xmlns="http://www.w3.org/2000/svg">
<path d="M8.16211 8.50003C8.16294 8.03462 8.07203 7.57361 7.89458 7.14336C7.71713 6.7131 7.45662 6.32204 7.12794 5.99253L1.34086 0.205446C1.20748 0.0720645 1.02657 -0.00286861 0.837941 -0.00286862C0.64931 -0.00286863 0.468406 0.0720645 0.335024 0.205446C0.201642 0.338828 0.126709 0.519733 0.126709 0.708363C0.126709 0.896993 0.201642 1.0779 0.335024 1.21128L6.12211 6.99836C6.52005 7.3968 6.74357 7.9369 6.74357 8.50003C6.74357 9.06316 6.52005 9.60326 6.12211 10.0017L0.335023 15.7888C0.201641 15.9222 0.126708 16.1031 0.126708 16.2917C0.126708 16.4803 0.201641 16.6612 0.335023 16.7946C0.468405 16.928 0.64931 17.0029 0.83794 17.0029C1.02657 17.0029 1.20747 16.928 1.34086 16.7946L7.12794 11.0075C7.45662 10.678 7.71713 10.287 7.89458 9.85671C8.07203 9.42645 8.16294 8.96544 8.16211 8.50003Z" fill="#A8A8A8"/>
</svg>
