<svg width="20" height="22" viewBox="0 0 20 22" fill="none" xmlns="http://www.w3.org/2000/svg">
<path d="M6.03571 0.760117C6.27679 0.29425 6.77232 0 7.3125 0H12.6875C13.2277 0 13.7232 0.29425 13.9643 0.760117L14.2857 1.375H18.5714C19.3616 1.375 20 1.99074 20 2.75C20 3.50926 19.3616 4.125 18.5714 4.125H1.42857C0.639732 4.125 0 3.50926 0 2.75C0 1.99074 0.639732 1.375 1.42857 1.375H5.71429L6.03571 0.760117ZM17.625 20.0277C17.5536 21.1535 16.6205 22 15.4866 22H4.51339C3.3817 22 2.44509 21.1535 2.37455 20.0277L1.38839 5.5H18.5714L17.625 20.0277Z" fill="#EF5924"/>
</svg>
