<svg width="18" height="22" viewBox="0 0 18 22" fill="none" xmlns="http://www.w3.org/2000/svg">
<path d="M1.5 21.5C0.670312 21.5 0 20.8297 0 20C0 19.1703 0.670312 18.5 1.5 18.5H16.5C17.3297 18.5 18 19.1703 18 20C18 20.8297 17.3297 21.5 16.5 21.5H1.5ZM10.0594 15.0594C9.47344 15.6453 8.52188 15.6453 7.93594 15.0594L1.93594 9.05938C1.35 8.47344 1.35 7.52188 1.93594 6.93594C2.52187 6.35 3.47344 6.35 4.05937 6.93594L7.5 10.3766V2C7.5 1.17031 8.17031 0.5 9 0.5C9.82969 0.5 10.5 1.17031 10.5 2V10.3766L13.9406 6.93594C14.5266 6.35 15.4781 6.35 16.0641 6.93594C16.65 7.52188 16.65 8.47344 16.0641 9.05938L10.0641 15.0594H10.0594Z" fill="#2D2D2D"/>
</svg>
