<svg width="22" height="20" viewBox="0 0 22 20" fill="none" xmlns="http://www.w3.org/2000/svg">
<path d="M0 2.07355C0 1.13555 0.760547 0.375 1.69855 0.375H20.3027C21.2395 0.375 22 1.13555 22 2.07355C22 2.46887 21.8625 2.85172 21.609 3.15637L13.75 12.6555V18.1684C13.75 18.9719 13.0969 19.625 12.2934 19.625C11.9711 19.625 11.6574 19.5176 11.3996 19.3199L8.78281 17.2789C8.44766 17.0211 8.25 16.6215 8.25 16.1961V12.6555L0.389984 3.15637C0.13793 2.85172 0 2.46887 0 2.07355ZM1.69855 1.75C1.5198 1.75 1.375 1.8948 1.375 2.07355C1.375 2.14875 1.40121 2.2218 1.44934 2.2798L9.46602 11.968C9.56914 12.0926 9.625 12.2473 9.625 12.4062V16.1961L12.2074 18.2328C12.259 18.2457 12.2762 18.25 12.2934 18.25C12.3406 18.25 12.375 18.2156 12.375 18.1684V12.4062C12.375 12.2473 12.4309 12.0926 12.534 11.968L20.552 2.2798C20.5992 2.2218 20.625 2.14875 20.625 2.07355C20.625 1.8948 20.4789 1.75 20.3027 1.75H1.69855Z" fill="#99A69D"/>
</svg>
