<svg width="30" height="28" viewBox="0 0 30 28" fill="none" xmlns="http://www.w3.org/2000/svg">
<path d="M3.75 2.75C2.71289 2.75 1.875 3.58789 1.875 4.625V18.3008L5.8418 14.334C6.75586 13.4199 8.23828 13.4199 9.1582 14.334L13.125 18.3008L20.8418 10.584C21.7559 9.66992 23.2383 9.66992 24.1582 10.584L28.125 14.5508V4.625C28.125 3.58789 27.2871 2.75 26.25 2.75H3.75ZM1.875 20.9492V23.375C1.875 24.4121 2.71289 25.25 3.75 25.25H6.17578L11.8008 19.625L7.83398 15.6582C7.65234 15.4766 7.35352 15.4766 7.17188 15.6582L1.875 20.9492ZM22.834 11.9082C22.6523 11.7266 22.3535 11.7266 22.1719 11.9082L8.82422 25.25H26.25C27.2871 25.25 28.125 24.4121 28.125 23.375V17.1992L22.834 11.9082ZM0 4.625C0 2.55664 1.68164 0.875 3.75 0.875H26.25C28.3184 0.875 30 2.55664 30 4.625V23.375C30 25.4434 28.3184 27.125 26.25 27.125H3.75C1.68164 27.125 0 25.4434 0 23.375V4.625ZM9.375 7.4375C9.375 7.18886 9.27623 6.9504 9.10041 6.77459C8.9246 6.59877 8.68614 6.5 8.4375 6.5C8.18886 6.5 7.9504 6.59877 7.77459 6.77459C7.59877 6.9504 7.5 7.18886 7.5 7.4375C7.5 7.68614 7.59877 7.9246 7.77459 8.10041C7.9504 8.27623 8.18886 8.375 8.4375 8.375C8.68614 8.375 8.9246 8.27623 9.10041 8.10041C9.27623 7.9246 9.375 7.68614 9.375 7.4375ZM5.625 7.4375C5.625 6.69158 5.92132 5.97621 6.44876 5.44876C6.97621 4.92132 7.69158 4.625 8.4375 4.625C9.18342 4.625 9.89879 4.92132 10.4262 5.44876C10.9537 5.97621 11.25 6.69158 11.25 7.4375C11.25 8.18342 10.9537 8.89879 10.4262 9.42624C9.89879 9.95368 9.18342 10.25 8.4375 10.25C7.69158 10.25 6.97621 9.95368 6.44876 9.42624C5.92132 8.89879 5.625 8.18342 5.625 7.4375Z" fill="#A8A8A8"/>
</svg>
