<svg width="21" height="21" viewBox="0 0 21 21" fill="none" xmlns="http://www.w3.org/2000/svg">
<path d="M10.5 21C13.2848 21 15.9555 19.8938 17.9246 17.9246C19.8938 15.9555 21 13.2848 21 10.5C21 7.71523 19.8938 5.04451 17.9246 3.07538C15.9555 1.10625 13.2848 0 10.5 0C7.71523 0 5.04451 1.10625 3.07538 3.07538C1.10625 5.04451 0 7.71523 0 10.5C0 13.2848 1.10625 15.9555 3.07538 17.9246C5.04451 19.8938 7.71523 21 10.5 21ZM6.96445 6.77988C7.28848 5.86523 8.15801 5.25 9.13008 5.25H11.5213C12.9527 5.25 14.1094 6.41074 14.1094 7.83809C14.1094 8.76504 13.6131 9.62227 12.8092 10.0857L11.4844 10.8445C11.4762 11.3777 11.0373 11.8125 10.5 11.8125C9.95449 11.8125 9.51562 11.3736 9.51562 10.8281V10.2744C9.51562 9.92168 9.7043 9.59766 10.0119 9.42129L11.8289 8.37949C12.0217 8.26875 12.1406 8.06367 12.1406 7.84219C12.1406 7.49766 11.8617 7.22285 11.5213 7.22285H9.13008C8.99063 7.22285 8.86758 7.30898 8.82246 7.44023L8.80605 7.48945C8.62559 8.00215 8.05957 8.26875 7.55098 8.08828C7.04238 7.90781 6.77168 7.3418 6.95215 6.8332L6.96855 6.78398L6.96445 6.77988ZM9.1875 14.4375C9.1875 14.0894 9.32578 13.7556 9.57192 13.5094C9.81806 13.2633 10.1519 13.125 10.5 13.125C10.8481 13.125 11.1819 13.2633 11.4281 13.5094C11.6742 13.7556 11.8125 14.0894 11.8125 14.4375C11.8125 14.7856 11.6742 15.1194 11.4281 15.3656C11.1819 15.6117 10.8481 15.75 10.5 15.75C10.1519 15.75 9.81806 15.6117 9.57192 15.3656C9.32578 15.1194 9.1875 14.7856 9.1875 14.4375Z" fill="#A8A8A8"/>
</svg>
