<svg width="16" height="16" viewBox="0 0 16 16"  fill="#A8A8A8" xmlns="http://www.w3.org/2000/svg">
<path d="M12.5 9C12.225 9 12 9.225 12 9.5V14C12 14.5522 11.5522 15 11 15H2C1.44781 15 1 14.5522 1 14V5C1 4.44781 1.44781 4 2 4H5.5C5.775 4 6 3.775 6 3.5C6 3.225 5.775 3 5.5 3H2C0.895313 3 0 3.89531 0 5V14C0 15.1047 0.895313 16 2 16H11C12.1047 16 13 15.1047 13 14V9.5C13 9.225 12.775 9 12.5 9ZM15.5 0H10.5C10.225 0 10 0.223625 10 0.5C10 0.776375 10.225 1 10.5 1H14.2937L5.64687 9.64688C5.45156 9.84219 5.45156 10.1588 5.64687 10.3538C5.74375 10.45 5.87187 10.5 6 10.5C6.12813 10.5 6.25588 10.4512 6.35344 10.3535L15 1.70719V5.5C15 5.775 15.225 6 15.5 6C15.775 6 16 5.775 16 5.5V0.5C16 0.223625 15.775 0 15.5 0Z"/>
</svg>
