<svg width="24" height="24" viewBox="0 0 24 24" fill="none" xmlns="http://www.w3.org/2000/svg">
<path d="M8.25 0H0.75C0.3375 0 0 0.3375 0 0.75V8.25C0 8.6625 0.3375 9 0.75 9C1.1625 9 1.5 8.6625 1.5 8.25V2.55937L14.0953 15.1547C14.3859 15.4453 14.8641 15.4453 15.1547 15.1547C15.4453 14.8641 15.4453 14.3859 15.1547 14.0953L2.55937 1.5H8.25C8.6625 1.5 9 1.1625 9 0.75C9 0.3375 8.6625 0 8.25 0ZM13.5 3C13.0875 3 12.75 3.3375 12.75 3.75C12.75 4.1625 13.0875 4.5 13.5 4.5C18.4688 4.5 22.5 8.53125 22.5 13.5C22.5 18.4688 18.4688 22.5 13.5 22.5C8.53125 22.5 4.5 18.4688 4.5 13.5C4.5 13.0875 4.1625 12.75 3.75 12.75C3.3375 12.75 3 13.0875 3 13.5C3 19.2984 7.70156 24 13.5 24C19.2984 24 24 19.2984 24 13.5C24 7.70156 19.2984 3 13.5 3Z" fill="#EF5924"/>
</svg>
