<svg width="20" height="18" viewBox="0 0 20 18" fill="none" xmlns="http://www.w3.org/2000/svg">
<path d="M20.0002 9C20.0002 8.62187 19.6699 8.3125 19.2591 8.3125H2.41584L8.69709 1.89726C8.97196 1.61663 8.94955 1.1814 8.64718 0.926598C8.50468 0.810152 8.32611 0.749996 8.14754 0.749996C7.94642 0.749996 7.74535 0.825191 7.59933 0.975582L0.193078 8.53808C-0.0637081 8.79993 -0.0637081 9.20023 0.193078 9.46191L7.59933 17.0244C7.87566 17.3064 8.34441 17.3252 8.6462 17.0714C8.94857 16.8163 8.97098 16.3813 8.69611 16.1008L2.41584 9.6875H19.2596C19.6699 9.6875 20.0002 9.37812 20.0002 9Z" fill="#2D2D2D"/>
</svg>
