<svg width="19" height="19" viewBox="0 0 19 19" fill="none" xmlns="http://www.w3.org/2000/svg">
<path d="M18.768 17.6486L14.0425 12.9232C15.3303 11.3482 15.9634 9.33857 15.811 7.3099C15.6586 5.28123 14.7322 3.38875 13.2236 2.02391C11.715 0.659066 9.7395 -0.0737151 7.70575 -0.0228649C5.672 0.0279853 3.73559 0.858576 2.29706 2.29711C0.85853 3.73564 0.0279395 5.67204 -0.0229107 7.70579C-0.0737608 9.73955 0.65902 11.715 2.02386 13.2237C3.3887 14.7323 5.28118 15.6586 7.30985 15.811C9.33852 15.9635 11.3482 15.3303 12.9231 14.0426L17.6486 18.768C17.7979 18.9122 17.9979 18.992 18.2054 18.9902C18.413 18.9884 18.6116 18.9052 18.7583 18.7584C18.9051 18.6116 18.9884 18.4131 18.9902 18.2055C18.992 17.9979 18.9122 17.7979 18.768 17.6486ZM7.91662 14.25C6.664 14.25 5.43952 13.8786 4.398 13.1826C3.35649 12.4867 2.54473 11.4976 2.06538 10.3403C1.58602 9.18306 1.4606 7.90964 1.70498 6.68109C1.94935 5.45254 2.55254 4.32405 3.43827 3.43832C4.32401 2.55259 5.4525 1.94939 6.68104 1.70502C7.90959 1.46065 9.18301 1.58607 10.3403 2.06542C11.4975 2.54478 12.4867 3.35654 13.1826 4.39805C13.8785 5.43956 14.25 6.66405 14.25 7.91666C14.2481 9.59579 13.5802 11.2056 12.3929 12.3929C11.2056 13.5802 9.59574 14.2481 7.91662 14.25Z" fill="#A8A8A8"/>
</svg>
