<svg width="30" height="30" viewBox="0 0 30 30" fill="white" xmlns="http://www.w3.org/2000/svg">
<path d="M17 5.96021V12.0398C17 12.3164 17.074 12.5456 17.2219 12.7273C17.3698 12.9091 17.5541 13 17.775 13H24.2207C24.4415 13 24.6266 12.9091 24.7759 12.7273C24.9253 12.5456 25 12.3164 25 12.0398V5.96021C25 5.68363 24.926 5.45445 24.7781 5.27268C24.6302 5.09089 24.4458 5 24.225 5H17.7793C17.5585 5 17.3734 5.09089 17.2241 5.27268C17.0747 5.45445 17 5.68363 17 5.96021Z" />
<path d="M17 16.9602V23.0398C17 23.3164 17.074 23.5456 17.2219 23.7273C17.3698 23.9091 17.5541 24 17.775 24H24.2207C24.4415 24 24.6266 23.9091 24.7759 23.7273C24.9253 23.5456 25 23.3164 25 23.0398V16.9602C25 16.6836 24.926 16.4545 24.7781 16.2727C24.6302 16.0909 24.4458 16 24.225 16H17.7793C17.5585 16 17.3734 16.0909 17.2241 16.2727C17.0747 16.4545 17 16.6836 17 16.9602Z" />
<path d="M5 5.96021V12.0398C5 12.3164 5.07395 12.5456 5.22186 12.7273C5.36978 12.9091 5.55415 13 5.77496 13H12.2207C12.4415 13 12.6266 12.9091 12.7759 12.7273C12.9253 12.5456 13 12.3164 13 12.0398V5.96021C13 5.68363 12.926 5.45445 12.7781 5.27268C12.6302 5.09089 12.4458 5 12.225 5H5.77935C5.55854 5 5.37344 5.09089 5.22407 5.27268C5.07469 5.45445 5 5.68363 5 5.96021Z" />
<path d="M5 16.9602V23.0398C5 23.3164 5.07395 23.5456 5.22186 23.7273C5.36978 23.9091 5.55415 24 5.77496 24H12.2207C12.4415 24 12.6266 23.9091 12.7759 23.7273C12.9253 23.5456 13 23.3164 13 23.0398V16.9602C13 16.6836 12.926 16.4545 12.7781 16.2727C12.6302 16.0909 12.4458 16 12.225 16H5.77935C5.55854 16 5.37344 16.0909 5.22407 16.2727C5.07469 16.4545 5 16.6836 5 16.9602Z" />
</svg>
