<svg id="Layer_1" data-name="Layer 1" xmlns="http://www.w3.org/2000/svg" viewBox="0 0 20 20">
  <defs>
    <style>
      .cls-1 {
        fill: #fff;
      }
    </style>
  </defs>
  <path d="M20.00063,14.5v3a2.5,2.5,0,0,1-2.5,2.5h-7.142A1,1,0,0,1,9.644,18.30054l5.8725-6A.99994.99994,0,0,1,16.23116,12h1.26947A2.5,2.5,0,0,1,20.00063,14.5Z" transform="translate(-0.00063)"/>
  <path d="M11.20351,14.45123,13.6606,12l2.71-2.71a2.50316,2.50316,0,0,0,0-3.54l-2.12-2.12a2.50316,2.50316,0,0,0-3.54,0l-.91711.91712a1,1,0,0,0-.29291.70709s0,5.27985-.00342,8.49219A.99884.99884,0,0,0,11.20351,14.45123Z" transform="translate(-0.00063)"/>
  <path d="M8.00063,2.5V16a4.00642,4.00642,0,0,1-1.14014,2.79l-.03979.04a3.19244,3.19244,0,0,1-.28.25,3.50139,3.50139,0,0,1-.99.6c-.11011.05-.22.09-.33008.13a3.88791,3.88791,0,0,1-1.22.19,4.25662,4.25662,0,0,1-.80005-.08c-.12988-.03-.26-.06-.38989-.1a3.60182,3.60182,0,0,1-.46-.17c0-.01,0-.01-.01,0A5.04173,5.04173,0,0,1,1.54067,19.16l-.01-.00995a2.74672,2.74672,0,0,1-.36011-.32c-.10986-.12-.22-.24-.32983-.37a5.01947,5.01947,0,0,1-.49-.8c.00976-.00995.00976-.00995,0-.00995a.031.031,0,0,0-.01-.02c-.06006-.14-.11011-.29-.16016-.44-.03979-.13-.07007-.26-.09985-.39A4.251,4.251,0,0,1,.00063,16V2.5a2.36193,2.36193,0,0,1,2.5-2.5h3A2.36193,2.36193,0,0,1,8.00063,2.5Z" transform="translate(-0.00063)"/>
  <circle class="cls-1" cx="4" cy="16" r="1.5"/>
</svg>
