<?xml version="1.0" encoding="utf-8"?>
<!-- Generator: Adobe Illustrator 26.0.1, SVG Export Plug-In . SVG Version: 6.00 Build 0)  -->
<svg version="1.1" id="Layer_1" xmlns="http://www.w3.org/2000/svg" xmlns:xlink="http://www.w3.org/1999/xlink" x="0px" y="0px"
	 viewBox="0 0 23.6 20" style="enable-background:new 0 0 23.6 20;" xml:space="preserve">
<path d="M13.7,5.6l-0.9-0.9L12,5.5l1.3,1.3c0.2,0.2,0.6,0.2,0.8,0c0,0,0,0,0,0l2.5-2.5l-0.8-0.8L13.7,5.6z"/>
<path d="M18,16.1c-1.1,0-2,0.9-2,2s0.9,2,2,2s2-0.9,2-2C19.9,17,19.1,16.1,18,16.1z"/>
<circle cx="10.4" cy="18" r="2"/>
<path d="M23.5,4.9c-0.1-0.1-0.2-0.2-0.4-0.2h-3.7c-0.2-2.9-2.8-5-5.6-4.7c-2.5,0.2-4.5,2.2-4.7,4.7H5.9L4.6,0.9
	C4.5,0.6,4.3,0.4,3.9,0.4H0v1.5h3.4l4.1,12.4c0.1,0.3,0.4,0.5,0.7,0.5l0,0h11.8c0.2,0,0.4-0.1,0.4-0.3l3-9.1
	C23.6,5.2,23.6,5.1,23.5,4.9z M14.3,9.2c-2.2,0-4-1.8-4-4c0-0.1,0-0.3,0-0.4c0.2-2.2,2.2-3.8,4.4-3.6c1.9,0.2,3.4,1.7,3.6,3.6
	c0,0.1,0,0.3,0,0.4C18.3,7.4,16.5,9.2,14.3,9.2z"/>
</svg>
