<svg width="26" height="20" viewBox="0 0 26 20" fill="#2D2D2D" xmlns="http://www.w3.org/2000/svg">
<path d="M5.85 0C6.71195 0 7.5386 0.32924 8.1481 0.915291C8.75759 1.50134 9.1 2.2962 9.1 3.125C9.1 3.9538 8.75759 4.74866 8.1481 5.33471C7.5386 5.92076 6.71195 6.25 5.85 6.25C4.98805 6.25 4.1614 5.92076 3.5519 5.33471C2.94241 4.74866 2.6 3.9538 2.6 3.125C2.6 2.2962 2.94241 1.50134 3.5519 0.915291C4.1614 0.32924 4.98805 0 5.85 0ZM20.8 0C21.662 0 22.4886 0.32924 23.0981 0.915291C23.7076 1.50134 24.05 2.2962 24.05 3.125C24.05 3.9538 23.7076 4.74866 23.0981 5.33471C22.4886 5.92076 21.662 6.25 20.8 6.25C19.938 6.25 19.1114 5.92076 18.5019 5.33471C17.8924 4.74866 17.55 3.9538 17.55 3.125C17.55 2.2962 17.8924 1.50134 18.5019 0.915291C19.1114 0.32924 19.938 0 20.8 0ZM0 11.668C0 9.36719 1.94187 7.5 4.33469 7.5H6.06937C6.71531 7.5 7.32875 7.63672 7.88125 7.87891C7.82844 8.16016 7.80406 8.45312 7.80406 8.75C7.80406 10.2422 8.48656 11.582 9.56312 12.5C9.555 12.5 9.54688 12.5 9.53469 12.5H0.865312C0.39 12.5 0 12.125 0 11.668ZM16.4653 12.5C16.4572 12.5 16.4491 12.5 16.4369 12.5C17.5175 11.582 18.1959 10.2422 18.1959 8.75C18.1959 8.45312 18.1675 8.16406 18.1187 7.87891C18.6712 7.63281 19.2847 7.5 19.9306 7.5H21.6653C24.0581 7.5 26 9.36719 26 11.668C26 12.1289 25.61 12.5 25.1347 12.5H16.4653ZM9.1 8.75C9.1 7.75544 9.51089 6.80161 10.2423 6.09835C10.9737 5.39509 11.9657 5 13 5C14.0343 5 15.0263 5.39509 15.7577 6.09835C16.4891 6.80161 16.9 7.75544 16.9 8.75C16.9 9.74456 16.4891 10.6984 15.7577 11.4017C15.0263 12.1049 14.0343 12.5 13 12.5C11.9657 12.5 10.9737 12.1049 10.2423 11.4017C9.51089 10.6984 9.1 9.74456 9.1 8.75ZM5.2 18.957C5.2 16.082 7.62531 13.75 10.6153 13.75H15.3847C18.3747 13.75 20.8 16.082 20.8 18.957C20.8 19.5312 20.3166 20 19.7153 20H6.28469C5.6875 20 5.2 19.5352 5.2 18.957Z" />
</svg>
